<?xml version="1.0" encoding="UTF-8"?>
<svg id="a" data-name="Layer 1" xmlns="http://www.w3.org/2000/svg" viewBox="0 0 145 145">
  <path d="m121.51,39.64c-.64-.84-1.64-1.34-2.7-1.34h-23.19s0,0-.01,0h-46.22s0,0,0,0h-20.63l-2.33-8.3c-.91-3.24-3.89-5.5-7.25-5.5H4.88c-1.87,0-3.38,1.51-3.38,3.38s1.51,3.38,3.38,3.38h14.28c.34,0,.65.23.74.56l3.02,10.77,12.57,44.77-4.09,14.58c-.67,2.37-.19,4.86,1.29,6.83,1.49,1.96,3.76,3.09,6.22,3.09h1.24c1.46,4.98,6.08,8.63,11.53,8.63s10.13-3.7,11.56-8.74h18.52c1.43,5.04,6.07,8.74,11.56,8.74,6.63,0,12.02-5.39,12.02-12.02s-5.39-12.02-12.02-12.02c-5.49,0-10.13,3.7-11.56,8.74h-18.52c-1.43-5.04-6.07-8.74-11.56-8.74s-10.06,3.65-11.53,8.63h-1.24c-.45,0-.71-.26-.83-.41-.12-.15-.29-.48-.17-.91l3.66-13.03h14.17s0,0,.01,0c0,0,0,0,.01,0h33.48s0,0,.01,0c0,0,0,0,.01,0h10.77c5.02,0,9.47-3.38,10.83-8.21l11.21-39.94c.29-1.02.08-2.11-.56-2.96Zm-28.2,63.59c2.9,0,5.25,2.36,5.25,5.25s-2.36,5.25-5.25,5.25-5.25-2.36-5.25-5.25,2.36-5.25,5.25-5.25Zm-41.63,0c2.9,0,5.25,2.36,5.25,5.25s-2.36,5.25-5.25,5.25-5.25-2.36-5.25-5.25,2.36-5.25,5.25-5.25Zm58.16-42.09h-13.5l2.26-16.08h15.76l-4.51,16.08Zm-33.96,22.84v-16.08h12.68l-2.26,16.08h-10.42Zm-17.19,0l-2.26-16.08h12.68v16.08h-10.42Zm-21.64-16.08h12.55l2.26,16.08h-10.29l-4.51-16.08Zm18.43-6.77l-2.26-16.08h15.89v16.08h-13.63Zm20.4,0v-16.08h15.89l-2.26,16.08h-13.63Zm-29.48-16.08l2.26,16.08h-13.5l-4.51-16.08h15.76Zm57.95,35.64c-.54,1.93-2.32,3.27-4.32,3.27h-6.89l2.26-16.08h12.55l-3.59,12.8Z" fill="#d6e8d9"/>
</svg>