<?xml version="1.0" encoding="UTF-8"?>
<svg id="a" data-name="Layer 1" xmlns="http://www.w3.org/2000/svg" viewBox="0 0 45 45">
  <path d="m38.56,10.83c1.07-1.61.64-3.79-.97-4.87-1.61-1.08-3.79-.64-4.87.97l-15.24,22.86-6.16-9.24c-1.08-1.61-3.26-2.05-4.87-.97-1.61,1.07-2.05,3.26-.97,4.87l9.07,13.6s0,0,0,.01h0s.01.02.01.02c.14.21.32.41.51.59.07.06.14.12.21.18.08.06.15.14.24.19.04.03.09.04.14.07.19.12.4.21.61.28.1.04.19.08.28.11.29.08.58.12.88.13.01,0,.02,0,.03,0,0,0,0,0,0,0s0,0,0,0c.01,0,.02,0,.03,0,.3,0,.6-.05.88-.13.1-.03.19-.07.28-.11.21-.08.41-.17.61-.28.04-.03.1-.04.14-.07.09-.06.16-.13.24-.19.07-.06.15-.11.21-.18.19-.18.37-.37.51-.59,0,0,0,0,.01-.02h0s0-.02.01-.02l18.15-27.22Z" fill="#d6e8d9"/>
</svg>