<?xml version="1.0" encoding="UTF-8"?>
<svg id="a" data-name="Layer 1" xmlns="http://www.w3.org/2000/svg" viewBox="0 0 45 45">
  <path d="m22.5,16.6L12.49,6.59c-1.63-1.63-4.27-1.63-5.9,0-1.63,1.63-1.63,4.27,0,5.9l10.01,10.01-10.01,10.01c-1.63,1.63-1.63,4.27,0,5.9,1.63,1.63,4.27,1.63,5.9,0l10.01-10.01,10.01,10.01c1.63,1.63,4.27,1.63,5.9,0,.82-.82,1.22-1.88,1.22-2.95s-.41-2.14-1.22-2.95l-10.01-10.01,10.01-10.01c.82-.82,1.22-1.88,1.22-2.95s-.41-2.14-1.22-2.95c-1.63-1.63-4.27-1.63-5.9,0l-10.01,10.01Z" fill="#d9b5b5"/>
</svg>