<?xml version="1.0" encoding="UTF-8"?>
<svg id="a" xmlns="http://www.w3.org/2000/svg" viewBox="0 0 38 38">
  <path d="m5.66,7.59l13.04,12.41c.17.16.43.16.59,0l13.05-12.41c.28-.27.09-.74-.3-.74H5.95c-.39,0-.58.47-.3.74Z" fill="#f5f5f5"/>
  <path d="m11.51,18.69L2.7,10.3c-.27-.26-.72-.07-.72.31v16.77c0,.38.45.57.72.31l8.81-8.39c.18-.17.18-.45,0-.62Z" fill="#f5f5f5"/>
  <path d="m32.35,30.41l-8.8-8.37c-.17-.16-.43-.16-.6,0l-1.99,1.96c-1.09,1.07-2.85,1.07-3.94,0l-1.99-1.95c-.16-.16-.43-.16-.6,0l-8.79,8.36c-.28.27-.09.74.3.74h26.11c.39,0,.58-.47.3-.74Z" fill="#f5f5f5"/>
  <path d="m35.3,10.3l-8.82,8.39c-.18.17-.18.45,0,.62l8.82,8.39c.27.26.72.07.72-.31V10.61c0-.38-.45-.57-.72-.31Z" fill="#f5f5f5"/>
</svg>