<?xml version="1.0" encoding="UTF-8"?>
<svg id="a" data-name="Layer 1" xmlns="http://www.w3.org/2000/svg" viewBox="0 0 38 38">
  <path d="m19,.92C8.76.92.47,9.22.47,19.46c0,8.19,5.31,15.14,12.67,17.58.93.17,1.27-.4,1.27-.89,0-.44-.02-1.61-.02-3.15-5.16,1.12-6.24-2.49-6.24-2.49-.84-2.14-2.06-2.71-2.06-2.71-1.68-1.15.13-1.13.13-1.13,1.86.13,2.84,1.91,2.84,1.91,1.65,2.83,4.34,2.02,5.4,1.54.17-1.2.64-2.02,1.17-2.48-4.12-.46-8.44-2.06-8.44-9.16,0-2.02.72-3.68,1.91-4.97-.21-.47-.83-2.35.16-4.91,0,0,1.55-.5,5.1,1.9,1.48-.41,3.06-.62,4.63-.63,1.58,0,3.15.21,4.63.63,3.52-2.4,5.07-1.9,5.07-1.9,1,2.55.37,4.44.19,4.91,1.18,1.3,1.9,2.95,1.9,4.97,0,7.12-4.33,8.69-8.46,9.14.65.56,1.25,1.69,1.25,3.43,0,2.48-.02,4.47-.02,5.08,0,.49.32,1.07,1.27.88,7.42-2.43,12.72-9.38,12.72-17.56C37.53,9.22,29.24.92,19,.92Z" fill="#f5f5f5"/>
</svg>