<?xml version="1.0" encoding="UTF-8"?>
<svg id="a" xmlns="http://www.w3.org/2000/svg" viewBox="0 0 38 38">
  <path d="m33.58,1.97H4.42c-1.35,0-2.44,1.09-2.44,2.44v29.16c0,1.35,1.09,2.44,2.44,2.44h29.16c1.35,0,2.44-1.09,2.44-2.44V4.42c0-1.35-1.09-2.44-2.44-2.44ZM12.27,31.15h-4.99V14.89h4.99v16.25Zm-2.5-18.39c-1.63,0-2.95-1.32-2.95-2.95s1.32-2.95,2.95-2.95,2.95,1.32,2.95,2.95-1.32,2.95-2.95,2.95Zm21.4,18.39h-5.05v-8.3c0-3.77-1.77-3.92-2.59-3.92s-3.07.11-3.07,3.92l-.04-.81v9.11h-4.99V14.9h4.79v2.38s1.4-2.74,4.73-2.74,6.22,1.07,6.22,7.63v8.97Z" fill="#f5f5f5"/>
</svg>