<?xml version="1.0" encoding="UTF-8"?>
<svg id="a" data-name="Layer 1" xmlns="http://www.w3.org/2000/svg" viewBox="0 0 38 38">
  <path d="m32.08,28.9c0,1.75-1.42,3.17-3.17,3.17H9.11c-1.76,0-3.18-1.42-3.18-3.17V9.11c0-1.75,1.42-3.18,3.18-3.18h3.89c1.1,0,2-.9,2-2h0c0-1.1-.9-2-2-2h-3.89c-3.97,0-7.18,3.21-7.18,7.18v19.8c0,3.96,3.21,7.17,7.18,7.17h19.79c3.97,0,7.18-3.21,7.18-7.17v-3.9c0-1.1-.9-2-2-2h0c-1.1,0-2,.9-2,2v3.9Zm1.47-26.98h-10.55c-1.1,0-2,.9-2,2h0c0,1.1.9,2,2,2h6.26l-8.26,8.25-3.41,3.41c-.39.39-.59.9-.59,1.42s.2,1.02.59,1.41.9.59,1.41.59,1.03-.2,1.42-.59l3.41-3.41,8.25-8.26v6.26c0,1.1.9,2,2,2h0c1.1,0,2-.9,2-2V4.45c0-1.4-1.13-2.53-2.53-2.53Z" fill="#f5f5f5"/>
</svg>