<?xml version="1.0" encoding="UTF-8"?>
<svg id="a" data-name="Layer 1" xmlns="http://www.w3.org/2000/svg" viewBox="0 0 512 512">
  <g>
    <polygon points="458.72 25.57 422.74 438.79 256 486.43 89.26 438.79 53.28 25.57 458.72 25.57" fill="#264de4"/>
    <polygon points="420.25 60.83 389.72 411.55 256 449.76 256 60.83 420.25 60.83" fill="#2965f1"/>
  </g>
  <polygon points="256 111.13 256 162.03 130.34 162.03 125.59 111.13 256 111.13" fill="#ebebeb" opacity=".95"/>
  <polygon points="256 214.05 256 263.67 139.82 263.74 135.19 214.05 256 214.05" fill="#ebebeb" opacity=".95"/>
  <polygon points="256 346.04 256 398.93 149.62 368.91 142.39 291.28 193.52 291.28 197.06 329.41 256 346.04" fill="#ebebeb" opacity=".95"/>
  <polygon points="386.41 111.13 381.66 162.03 376.81 214.05 372.19 263.64 362.37 368.91 256 398.93 256 346.04 314.94 329.41 321.06 263.64 256 263.67 256 214.05 325.69 214.05 330.53 162.03 256 162.03 256 111.13 386.41 111.13" fill="#fff" opacity=".95"/>
</svg>