<?xml version="1.0" encoding="UTF-8"?>
<svg id="a" data-name="Layer 1" xmlns="http://www.w3.org/2000/svg" viewBox="0 0 512 512">
  <path id="b" data-name="path0 fill" d="m179.19,486.43c42.4,0,76.81-34.41,76.81-76.81v-76.81h-76.81c-42.4,0-76.81,34.41-76.81,76.81s34.41,76.81,76.81,76.81Z" fill="#0acf83"/>
  <path id="c" data-name="path1 fill" d="m102.38,256c0-42.4,34.41-76.81,76.81-76.81h76.81v153.62h-76.81c-42.4,0-76.81-34.41-76.81-76.81Z" fill="#a259ff"/>
  <path id="d" data-name="path1 fill" d="m102.38,102.38c0-42.4,34.41-76.81,76.81-76.81h76.81v153.62h-76.81c-42.4,0-76.81-34.41-76.81-76.81Z" fill="#f24e1e"/>
  <path id="e" data-name="path2 fill" d="m256,25.57h76.81c42.4,0,76.81,34.41,76.81,76.81s-34.41,76.81-76.81,76.81h-76.81V25.57Z" fill="#ff7262"/>
  <path id="f" data-name="path3 fill" d="m409.62,256c0,42.4-34.41,76.81-76.81,76.81s-76.81-34.41-76.81-76.81,34.41-76.81,76.81-76.81,76.81,34.41,76.81,76.81Z" fill="#1abcfe"/>
</svg>