<?xml version="1.0" encoding="UTF-8"?>
<svg id="a" data-name="Layer 1" xmlns="http://www.w3.org/2000/svg" viewBox="0 0 512 512">
  <path d="m79.05,405.23l2.94-4.12L221.12,137.12l.29-2.79-61.33-115.2c-5.14-9.65-19.6-7.21-21.29,3.59l-59.74,382.52Z" fill="#faa114"/>
  <path d="m266.13,221.46l45.67-46.77-45.68-87.2c-4.34-8.25-16.44-8.28-20.73,0l-24.4,46.54v3.96l45.15,83.46Z" fill="#ffa611"/>
  <polygon points="79.05 405.23 80.38 403.89 85.22 401.93 263.26 224.55 265.51 218.41 221.1 133.78 79.05 405.23" fill="#f68511"/>
  <path d="m271.83,494.69l161.12-89.86-46.01-283.37c-1.44-8.87-12.32-12.37-18.66-6.01L79.05,405.23l160.2,89.45c10.12,5.65,22.45,5.66,32.58,0" fill="#ffcc31"/>
</svg>