<?xml version="1.0" encoding="UTF-8"?>
<svg id="a" data-name="Layer 1" xmlns="http://www.w3.org/2000/svg" viewBox="0 0 512 512">
  <path d="m256,12.86C118.34,12.86,6.7,124.47,6.7,262.16c0,110.15,71.43,203.59,170.48,236.56,12.46,2.31,17.03-5.41,17.03-11.99,0-5.94-.23-25.58-.34-46.41-69.35,15.08-83.99-29.41-83.99-29.41-11.34-28.82-27.68-36.48-27.68-36.48-22.62-15.47,1.7-15.15,1.7-15.15,25.03,1.76,38.22,25.69,38.22,25.69,22.23,38.11,58.32,27.09,72.55,20.72,2.24-16.11,8.7-27.11,15.83-33.34-55.37-6.3-113.58-27.68-113.58-123.2,0-27.22,9.74-49.46,25.69-66.91-2.59-6.28-11.12-31.63,2.42-65.97,0,0,20.93-6.7,68.57,25.55,19.89-5.52,41.21-8.29,62.4-8.39,21.19.09,42.53,2.87,62.45,8.39,47.58-32.25,68.49-25.55,68.49-25.55,13.57,34.34,5.03,59.69,2.44,65.97,15.98,17.46,25.66,39.7,25.66,66.91,0,95.75-58.32,116.83-113.83,123.01,8.94,7.74,16.91,22.91,16.91,46.17,0,33.36-.29,60.2-.29,68.41,0,6.63,4.49,14.41,17.12,11.96,99-33,170.34-126.42,170.34-236.52,0-137.69-111.62-249.3-249.29-249.3ZM100.07,367.99c-.55,1.24-2.5,1.61-4.27.76-1.81-.81-2.82-2.5-2.24-3.74.54-1.28,2.49-1.63,4.29-.78,1.81.81,2.84,2.52,2.22,3.76Zm12.26,10.94c-1.19,1.1-3.51.59-5.09-1.15-1.63-1.74-1.94-4.06-.73-5.18,1.23-1.1,3.48-.59,5.11,1.15,1.63,1.76,1.95,4.07.71,5.18Zm8.41,14c-1.53,1.06-4.03.07-5.57-2.15-1.53-2.22-1.53-4.88.03-5.94,1.55-1.07,4.01-.11,5.57,2.09,1.52,2.25,1.52,4.91-.04,6Zm14.23,16.21c-1.37,1.51-4.28,1.1-6.41-.95-2.18-2.01-2.79-4.86-1.42-6.37,1.38-1.51,4.31-1.09,6.46.95,2.16,2.01,2.82,4.88,1.37,6.37Zm18.39,5.47c-.6,1.95-3.41,2.84-6.23,2.01-2.82-.85-4.66-3.14-4.1-5.11.59-1.97,3.4-2.89,6.25-2,2.82.85,4.66,3.12,4.08,5.11Zm20.93,2.32c.07,2.06-2.32,3.76-5.29,3.8-2.98.07-5.39-1.6-5.42-3.62,0-2.08,2.34-3.76,5.32-3.81,2.96-.06,5.39,1.59,5.39,3.64Zm20.56-.79c.36,2.01-1.7,4.07-4.65,4.62-2.89.53-5.57-.71-5.94-2.7-.36-2.06,1.74-4.12,4.63-4.65,2.95-.51,5.59.69,5.96,2.73Z" fill="#f5f5f5"/>
</svg>