<?xml version="1.0" encoding="UTF-8"?>
<svg id="a" data-name="Layer 1" xmlns="http://www.w3.org/2000/svg" viewBox="0 0 512 512">
  <g>
    <path d="m53.28,25.57l35.98,413.22,166.74,47.65,166.74-47.65L458.72,25.57H53.28Zm72.32,85.56h130.4v50.9h-74.53l4.85,52.02h69.69v49.59h-65.06l-51.13.1-14.21-152.61Zm24.02,257.78l-7.24-77.63h51.13l3.56,38.13,58.93,16.63v52.89l-106.38-30.02Z" fill="#e44d26"/>
    <polygon points="420.25 60.83 389.73 411.55 256 449.76 256 60.83 420.25 60.83" fill="#f16529"/>
  </g>
  <g>
    <polygon points="256 162.03 181.47 162.03 186.31 214.05 256 214.05 256 263.64 190.94 263.64 139.81 263.74 125.6 111.13 256 111.13 256 162.03" fill="#ebebeb" opacity=".95"/>
    <polygon points="256 346.04 256 398.93 149.62 368.91 142.38 291.28 193.51 291.28 197.07 329.41 256 346.04" fill="#ebebeb" opacity=".95"/>
  </g>
  <g>
    <g opacity=".95">
      <polygon points="376.82 214.05 372.2 263.64 362.38 368.91 256 398.93 256 346.04 314.94 329.41 321.07 263.64 256 263.64 256 214.05 376.82 214.05" fill="#fff"/>
    </g>
    <g opacity=".95">
      <polygon points="386.41 111.13 381.66 162.03 256 162.03 256 111.13 386.41 111.13" fill="#fff"/>
    </g>
  </g>
</svg>