<?xml version="1.0" encoding="UTF-8"?>
<svg id="a" data-name="Layer 1" xmlns="http://www.w3.org/2000/svg" viewBox="0 0 512 512">
  <g id="b" data-name="Layer 2">
    <g id="c" data-name="Surfaces">
      <g id="d" data-name="Drawing Surface">
        <g id="e" data-name="Outline no shadow">
          <path d="m103.36,25.57h305.28c46.28,0,83.7,37.42,83.7,83.7v293.46c0,46.28-37.42,83.7-83.7,83.7H103.36c-46.28,0-83.7-37.42-83.7-83.7V109.27c0-46.28,37.42-83.7,83.7-83.7Z" fill="#300"/>
        </g>
      </g>
    </g>
    <g id="f" data-name="Outlined Mnemonics Logos">
      <g id="g" data-name="Ai">
        <path d="m248.71,302.09h-73.27l-14.97,46.28c-.39,1.77-1.97,2.95-3.74,2.76h-37.03c-2.17,0-2.76-1.18-2.17-3.55l63.42-182.58c.59-1.97,1.18-4.14,1.97-6.5.79-4.14,1.18-8.47,1.18-12.8-.2-.98.59-1.97,1.58-2.17h51.01c1.58,0,2.36.59,2.56,1.58l71.89,202.86c.59,2.17,0,3.15-1.97,3.15h-41.16c-1.38.2-2.76-.79-3.15-2.17l-16.15-46.87Zm-61.84-39.98h50.03c-1.18-4.14-2.76-9.06-4.53-14.18-1.77-5.32-3.55-11.03-5.32-16.94-1.97-6.11-3.74-12.01-5.71-18.12-1.97-6.11-3.74-11.82-5.32-17.53-1.58-5.51-2.95-10.64-4.33-15.36h-.39c-1.77,8.47-3.94,16.94-6.7,25.41-2.95,9.45-5.91,19.3-9.06,29.15-2.76,10.04-5.71,19.3-8.67,27.57h0Z" fill="#ff9a00"/>
        <path d="m354.08,177.22c-6.5.2-12.8-2.36-17.53-6.89-4.53-4.92-6.89-11.42-6.7-18.12-.2-6.7,2.36-13,7.09-17.53,4.73-4.53,11.03-6.89,17.53-6.89,7.68,0,13.59,2.36,17.92,6.89,4.33,4.73,6.7,11.03,6.5,17.53.2,6.7-2.17,13.2-6.89,18.12-4.53,4.73-11.23,7.29-17.92,6.89Zm-22.06,170.95v-151.65c0-1.97.79-2.76,2.56-2.76h39c1.77,0,2.56.98,2.56,2.76v151.65c0,2.17-.79,3.15-2.56,3.15h-38.6c-1.97,0-2.95-1.18-2.95-3.15Z" fill="#ff9a00"/>
      </g>
    </g>
  </g>
</svg>