<?xml version="1.0" encoding="UTF-8"?>
<svg id="a" data-name="Layer 1" xmlns="http://www.w3.org/2000/svg" viewBox="0 0 512 512">
  <path d="m25.57,25.57h460.87v460.87H25.57V25.57Z" fill="#f7df1e"/>
  <path d="m146.74,410.7l35.27-21.34c6.8,12.06,12.99,22.27,27.84,22.27s23.2-5.57,23.2-27.22v-147.26h43.31v147.87c0,44.86-26.29,65.28-64.66,65.28-34.65,0-54.76-17.94-64.97-39.6"/>
  <path d="m299.89,406.06l35.26-20.42c9.28,15.16,21.35,26.3,42.69,26.3,17.95,0,29.39-8.97,29.39-21.35,0-14.85-11.76-20.11-31.55-28.77l-10.82-4.64c-31.25-13.3-51.98-30.01-51.98-65.27,0-32.48,24.75-57.23,63.42-57.23,27.53,0,47.33,9.59,61.56,34.65l-33.72,21.65c-7.43-13.3-15.47-18.56-27.84-18.56s-20.73,8.04-20.73,18.56c0,12.99,8.04,18.25,26.6,26.3l10.83,4.64c36.81,15.78,57.54,31.86,57.54,68.06,0,38.98-30.63,60.33-71.77,60.33s-66.2-19.18-78.89-44.24"/>
</svg>