<?xml version="1.0" encoding="UTF-8"?>
<svg xmlns="http://www.w3.org/2000/svg" version="1.1" viewBox="0 0 512 512">
  <defs>
    <style>
      .cls-1 {
        fill: #00ed64;
      }
    </style>
  </defs>
  <!-- Generator: Adobe Illustrator 28.7.2, SVG Export Plug-In . SVG Version: 1.2.0 Build 154)  -->
  <g>
    <g id="a">
      <path class="cls-1" d="M298.3,67.8c-20.4-24.1-38-48.6-41.6-53.7-.4-.4-.9-.4-1.3,0-3.6,5.1-21.2,29.6-41.6,53.7-175.3,222.5,27.6,372.7,27.6,372.7l1.7,1.1c1.5,23.2,5.3,56.5,5.3,56.5h15.1s3.8-33.2,5.3-56.5l1.7-1.3c.2,0,203.1-150,27.8-372.6ZM255.9,437.1s-9.1-7.7-11.5-11.7v-.4l11-242.3c0-.8,1.1-.8,1.1,0l11,242.3v.4c-2.5,4-11.5,11.7-11.5,11.7Z"/>
    </g>
  </g>
</svg>