<?xml version="1.0" encoding="UTF-8"?>
<svg id="a" data-name="Layer 1" xmlns="http://www.w3.org/2000/svg" viewBox="0 0 512 512">
  <polygon points="138.36 406.92 133.53 406.92 109.4 382.79 109.4 377.96 146.29 341.07 171.84 341.07 175.25 344.48 175.25 370.03 138.36 406.92" fill="#05bdba"/>
  <polygon points="109.4 134 109.4 129.17 133.53 105.04 138.36 105.04 175.25 141.93 175.25 167.48 171.84 170.89 146.29 170.89 109.4 134" fill="#05bdba"/>
  <path d="m321.81,329.14h-35.11l-2.93-2.93v-82.18c0-14.62-5.75-25.95-23.38-26.35-9.07-.24-19.45,0-30.55.44l-1.66,1.7v106.35l-2.93,2.93h-35.11l-2.93-2.93v-140.38l2.93-2.93h79.01c30.71,0,55.59,24.88,55.59,55.59v87.76l-2.93,2.93Z" fill="#f5f5f5"/>
  <polygon points="143.35 276.52 2.93 276.52 0 273.59 0 238.41 2.93 235.48 143.35 235.48 146.29 238.41 146.29 273.59 143.35 276.52" fill="#05bdba"/>
  <polygon points="509.07 276.52 368.65 276.52 365.71 273.59 365.71 238.41 368.65 235.48 509.07 235.48 512 238.41 512 273.59 509.07 276.52" fill="#05bdba"/>
  <polygon points="235.75 139 235.75 33.68 238.68 30.75 273.87 30.75 276.8 33.68 276.8 139 273.87 141.93 238.68 141.93 235.75 139" fill="#05bdba"/>
  <polygon points="235.75 478.32 235.75 373.01 238.68 370.07 273.87 370.07 276.8 373.01 276.8 478.32 273.87 481.25 238.68 481.25 235.75 478.32" fill="#05bdba"/>
</svg>