<?xml version="1.0" encoding="UTF-8"?>
<svg id="a" data-name="Layer 1" xmlns="http://www.w3.org/2000/svg" xmlns:xlink="http://www.w3.org/1999/xlink" viewBox="0 0 512 512">
  <defs>
    <linearGradient id="b" x1="-241.41" y1="-499.01" x2="-240.14" y2="-500.27" gradientTransform="translate(45777.32 -94656.7) scale(189.38 -189.81)" gradientUnits="userSpaceOnUse">
      <stop offset="0" stop-color="#387eb8"/>
      <stop offset="1" stop-color="#366994"/>
    </linearGradient>
    <linearGradient id="c" x1="-240.98" y1="-499.48" x2="-239.61" y2="-500.78" gradientTransform="translate(45843.32 -94592.47) scale(189.38 -189.81)" gradientUnits="userSpaceOnUse">
      <stop offset="0" stop-color="#ffe052"/>
      <stop offset="1" stop-color="#ffc331"/>
    </linearGradient>
  </defs>
  <path d="m254.24,13c-124.02,0-116.28,53.78-116.28,53.78l.14,55.72h118.35v16.73H91.09S11.73,130.23,11.73,255.37c0,125.14,69.27,120.7,69.27,120.7h41.34v-58.07s-2.23-69.27,68.16-69.27h117.38s65.95,1.07,65.95-63.74v-107.15s10.01-64.84-119.6-64.84h0Zm-65.26,37.47c11.78,0,21.29,9.52,21.29,21.29s-9.52,21.29-21.29,21.29c-11.78,0-21.29-9.52-21.29-21.29,0-11.78,9.52-21.29,21.29-21.29h0Z" fill="url(#b)"/>
  <path d="m257.76,499c124.02,0,116.28-53.78,116.28-53.78l-.14-55.72h-118.35v-16.73h165.36s79.36,9,79.36-116.14c0-125.14-69.27-120.7-69.27-120.7h-41.34v58.07s2.23,69.27-68.16,69.27h-117.38s-65.95-1.07-65.95,63.74v107.15s-10.01,64.84,119.6,64.84h0Zm65.26-37.47c-11.78,0-21.29-9.52-21.29-21.29s9.52-21.29,21.29-21.29,21.29,9.52,21.29,21.29c0,11.78-9.52,21.29-21.29,21.29h0Z" fill="url(#c)"/>
</svg>