<?xml version="1.0" encoding="UTF-8"?>
<svg id="a" data-name="Layer 1" xmlns="http://www.w3.org/2000/svg" viewBox="0 0 512 512">
  <path d="m420.97,175.88c-5.31-1.83-10.82-3.56-16.48-5.19.93-3.8,1.79-7.55,2.55-11.24,12.48-60.56,4.32-109.35-23.54-125.41-26.71-15.4-70.39.66-114.51,39.05-4.24,3.69-8.5,7.6-12.75,11.7-2.83-2.71-5.66-5.33-8.48-7.83-46.24-41.05-92.58-58.35-120.41-42.24-26.68,15.45-34.59,61.31-23.36,118.71,1.08,5.54,2.35,11.21,3.79,16.96-6.56,1.86-12.89,3.85-18.95,5.96C34.62,195.23,0,224.85,0,255.57s37.16,63.56,93.62,82.85c4.46,1.52,9.08,2.96,13.84,4.33-1.55,6.23-2.89,12.33-4.02,18.28-10.71,56.4-2.35,101.18,24.27,116.53,27.49,15.85,73.62-.44,118.55-39.71,3.55-3.1,7.11-6.4,10.68-9.85,4.63,4.46,9.25,8.67,13.84,12.63,43.51,37.44,86.49,52.57,113.08,37.17,27.46-15.9,36.39-64.01,24.8-122.54-.88-4.47-1.91-9.04-3.07-13.68,3.24-.96,6.42-1.95,9.52-2.97,58.7-19.45,96.88-50.89,96.88-83.04s-35.73-60.65-91.03-79.69Zm-137.63-86.31c37.8-32.88,73.14-45.88,89.23-36.59,17.15,9.88,23.81,49.76,13.03,102.06-.68,3.33-1.45,6.73-2.29,10.17-21.25-4.89-44.32-8.54-68.45-10.81-14.07-20.03-28.66-38.25-43.28-54.02,3.92-3.78,7.86-7.39,11.76-10.81Zm-132.17,192.24c4.6,8.86,9.43,17.7,14.52,26.49,5.19,8.97,10.56,17.74,16.07,26.31-16.77-1.88-32.58-4.42-47.18-7.59,4.53-14.59,10.08-29.77,16.59-45.21Zm-.02-51.44c-6.37-15.11-11.81-29.96-16.27-44.3,14.62-3.29,30.18-5.96,46.43-7.98-5.39,8.38-10.63,16.99-15.7,25.79-5.05,8.79-9.88,17.63-14.46,26.49Zm11.62,25.72c6.62-13.78,13.89-27.6,21.78-41.29,7.91-13.73,16.25-26.92,24.83-39.52,15.23-1.13,30.84-1.74,46.61-1.74s31.5.61,46.72,1.77c8.45,12.51,16.72,25.67,24.68,39.38,8.02,13.87,15.39,27.62,22.07,41.08-6.66,13.71-14.03,27.6-22,41.44-8.02,13.89-16.22,27.12-24.56,39.63-15.2,1.09-30.88,1.65-46.9,1.65s-31.43-.5-46.34-1.47c-8.68-12.67-17.09-25.94-25.04-39.68-7.93-13.71-15.23-27.53-21.84-41.26Zm183.63,52.07c5.21-9.06,10.17-18.1,14.84-27.15,6.84,15.61,12.62,30.7,17.2,45.05-14.84,3.38-30.88,6.12-47.77,8.13,5.32-8.41,10.56-17.11,15.73-26.04Zm14.64-77.79c-4.65-8.81-9.56-17.7-14.73-26.62-5.08-8.77-10.26-17.31-15.57-25.61,16.34,2.06,31.99,4.8,46.68,8.16-4.42,14.14-9.9,28.94-16.38,44.07Zm-104.8-114.36c10.11,10.94,20.19,23.14,30.14,36.39-10.02-.48-20.14-.73-30.39-.73s-20.17.23-30.14.7c9.95-13.12,20.14-25.31,30.39-36.37Zm-117.94-62.38c17.13-9.92,55.02,4.21,94.94,39.68,2.54,2.27,5.1,4.62,7.68,7.07-14.89,15.97-29.59,34.17-43.62,53.97-24.09,2.24-47.13,5.82-68.32,10.63-1.34-5.35-2.52-10.63-3.53-15.77-9.61-49.17-3.22-86.26,12.85-95.58Zm-24.97,268.06c-4.35-1.27-8.57-2.58-12.62-3.97-24.97-8.54-45.59-19.62-59.73-31.72-12.69-10.88-19.1-21.68-19.1-30.43,0-18.65,27.8-42.42,74.14-58.6,5.64-1.95,11.53-3.81,17.63-5.53,6.41,20.82,14.82,42.62,24.95,64.65-10.26,22.36-18.78,44.5-25.27,65.6Zm118.53,99.7c-19.85,17.36-39.77,29.68-57.31,35.87-15.77,5.57-28.32,5.73-35.91,1.36-16.13-9.31-22.86-45.27-13.71-93.51,1.07-5.53,2.31-11.19,3.74-16.99,20.98,4.65,44.19,7.98,69,9.99,14.18,19.92,29,38.25,43.96,54.29-3.26,3.15-6.53,6.16-9.77,9Zm24.99-24.74c-10.38-11.17-20.71-23.54-30.82-36.87,9.81.39,19.8.59,29.96.59s20.76-.23,30.91-.68c-9.97,13.55-20.03,25.94-30.05,36.96Zm132.83,30.43c-3.06,16.45-9.2,27.42-16.77,31.79-16.13,9.34-50.64-2.79-87.85-34.83-4.28-3.67-8.57-7.59-12.89-11.74,14.43-15.77,28.85-34.12,42.92-54.5,24.77-2.18,48.15-5.78,69.36-10.67,1.04,4.21,1.97,8.34,2.76,12.37,5.12,25.9,5.85,49.28,2.47,67.57Zm18.56-109.24c-2.81.93-5.66,1.84-8.61,2.7-6.46-20.51-15.2-42.33-25.92-64.85,10.22-22,18.63-43.55,24.93-63.92,5.23,1.52,10.31,3.1,15.23,4.8,47.38,16.31,76.27,40.42,76.27,59,0,19.78-31.2,45.48-81.89,62.27Z" fill="#53c1de"/>
  <path d="m255.99,301.3c25.27,0,45.73-20.48,45.73-45.73s-20.46-45.73-45.73-45.73-45.7,20.46-45.7,45.73,20.46,45.73,45.7,45.73Z" fill="#53c1de"/>
</svg>