<?xml version="1.0" encoding="UTF-8"?>
<svg id="a" data-name="Layer 1" xmlns="http://www.w3.org/2000/svg" viewBox="0 0 1000 1000">
  <path d="m500,0h0C775.96,0,1000,224.04,1000,500h0c0,275.96-224.04,500-500,500h0C224.04,1000,0,775.96,0,500H0C0,224.04,224.04,0,500,0Z" fill="#120d17"/>
  <path d="m661.44,469.57l-134.08-359.14h-64.48l-122.24,358.74c-1.48,4.33-5.14,7.56-9.63,8.47l-27.43,5.57v33.59l25.63,5.55c4.29.93,7.81,3.97,9.34,8.08l134.08,359.14h64.48l122.24-358.74c1.48-4.33,5.14-7.56,9.63-8.47l27.43-5.57v-33.59l-25.63-5.55c-4.29-.93-7.81-3.97-9.34-8.08Zm-142.75,351.74l-107.11-330.42c-8.14-25.12-8.43-52.12-.83-77.41l70.55-234.75,107.11,330.37c8.14,25.12,8.43,52.12.84,77.41l-70.55,234.79Z" fill="#f5f5f5"/>
</svg>